<?xml version="1.0" encoding="utf-8"?>
<!-- Generator: Adobe Illustrator 15.1.0, SVG Export Plug-In . SVG Version: 6.00 Build 0)  -->
<!DOCTYPE svg PUBLIC "-//W3C//DTD SVG 1.1//EN" "http://www.w3.org/Graphics/SVG/1.1/DTD/svg11.dtd">
<svg version="1.1" id="Layer_1" xmlns="http://www.w3.org/2000/svg" xmlns:xlink="http://www.w3.org/1999/xlink" x="0px" y="0px"
	 width="24px" height="24px" viewBox="0 0 24 24" enable-background="new 0 0 24 24" xml:space="preserve">
<rect x="0" width="24" height="24"/>
<rect x="1" y="1" fill="#FFFFFF" width="22" height="22"/>
<path fill="none" stroke="#323232" stroke-miterlimit="10" d="M0.199,19.92c0.712-0.78,0.95-0.878,1.187-1.366
	c0.237-0.487,0.475-1.609,0.807-3.511c0.332-1.902,0.427-2.049,1.044-5.559c0.617-3.512,1.139-4.389,1.566-4.78
	c0.427-0.39,0.807,0,0.902,0.244C5.799,5.192,5.799,5.533,6.56,8.313c0.759,2.78,0.664,4.047,1.091,5.755
	c0.629,2.51,1.139,3.462,1.282,3.754c0.143,0.293,0.618,0.78,0.902,0.878c0.284,0.099,1.756-0.341,1.804-0.535
	c0.047-0.196,1.282-1.805,2.088-4.634c0.807-2.828,0.617-2.975,1.328-5.657c0.713-2.682,0.191-3.414,0.477-3.608
	c0.283-0.195,0.902-0.292,1.137,0c0.238,0.292,0.713,1.366,1.094,5.12c0.381,3.755,0.568,8.924,1.092,9.705"/>
<path fill="none" stroke="#323232" stroke-miterlimit="10" d="M3.924,16.84c0.711-0.781,0.948-0.879,1.186-1.365
	c0.237-0.488,0.475-1.611,0.807-3.512c0.332-1.902,0.427-2.049,1.043-5.56c0.618-3.511,1.14-4.389,1.567-4.779s0.807,0,0.901,0.244
	c0.095,0.244,0.095,0.585,0.854,3.365c0.76,2.779,0.665,4.047,1.092,5.754c0.629,2.512,1.139,3.463,1.281,3.756
	s0.617,0.779,0.902,0.879c0.283,0.096,1.756-0.344,1.805-0.537c0.047-0.195,1.279-1.805,2.088-4.634
	c0.807-2.829,0.615-2.975,1.33-5.657c0.711-2.683,0.188-3.414,0.473-3.609c0.285-0.195,0.902-0.293,1.141,0
	c0.236,0.292,0.711,1.365,1.09,5.121c0.381,3.755,0.57,8.925,1.092,9.705"/>
<path fill="none" stroke="#323232" stroke-miterlimit="10" d="M2.36,23c0.712-0.781,0.95-0.879,1.187-1.365
	c0.238-0.488,0.475-1.609,0.807-3.512s0.427-2.049,1.045-5.561c0.616-3.511,1.139-4.389,1.566-4.779c0.427-0.39,0.807,0,0.902,0.244
	c0.095,0.244,0.095,0.585,0.854,3.365s0.664,4.047,1.091,5.754c0.629,2.51,1.139,3.463,1.282,3.756
	c0.143,0.293,0.617,0.779,0.902,0.879c0.285,0.096,1.757-0.344,1.804-0.537c0.047-0.195,1.281-1.805,2.088-4.633
	c0.807-2.83,0.617-2.977,1.328-5.658c0.713-2.682,0.191-3.414,0.477-3.609c0.283-0.195,0.902-0.293,1.139,0
	c0.236,0.292,0.711,1.365,1.092,5.121c0.381,3.756,0.568,8.926,1.092,9.705"/>
<path fill="none" stroke="#FF0000" stroke-width="1.5" stroke-miterlimit="10" d="M2.627,20.169c0.712-0.78,0.95-0.878,1.187-1.365
	c0.238-0.487,0.475-1.609,0.807-3.511c0.333-1.902,0.427-2.049,1.045-5.56c0.617-3.511,1.139-4.389,1.566-4.779
	c0.427-0.39,0.807,0,0.902,0.244c0.095,0.244,0.095,0.585,0.854,3.365c0.759,2.779,0.664,4.047,1.091,5.754
	c0.628,2.51,1.14,3.462,1.282,3.755c0.143,0.293,0.618,0.78,0.901,0.878c0.285,0.097,1.756-0.341,1.804-0.537
	c0.048-0.194,1.282-1.805,2.089-4.633c0.808-2.828,0.617-2.975,1.328-5.657c0.712-2.682,0.19-3.414,0.477-3.609
	c0.283-0.195,0.901-0.292,1.138,0c0.237,0.293,0.714,1.366,1.092,5.121c0.381,3.755,0.569,8.924,1.093,9.704"/>
</svg>
