<?xml version="1.0" encoding="utf-8"?>
<!-- Generator: Adobe Illustrator 15.1.0, SVG Export Plug-In . SVG Version: 6.00 Build 0)  -->
<!DOCTYPE svg PUBLIC "-//W3C//DTD SVG 1.1//EN" "http://www.w3.org/Graphics/SVG/1.1/DTD/svg11.dtd">
<svg version="1.1" id="Layer_1" xmlns="http://www.w3.org/2000/svg" xmlns:xlink="http://www.w3.org/1999/xlink" x="0px" y="0px"
	 width="24px" height="24px" viewBox="0 0 24 24" enable-background="new 0 0 24 24" xml:space="preserve">
<rect x="0" width="24" height="24"/>
<rect x="1" y="1" fill="#FFFFFF" width="22" height="22"/>
<g>
	<path d="M4.958,8.414C5.187,8.372,5.39,8.429,5.569,8.585c0.028,0.024,0.053,0.048,0.075,0.072c0.151,0.204,0.173,0.42,0.067,0.648
		c-0.083,0.18-0.215,0.273-0.394,0.279c-0.072,0-0.139-0.018-0.201-0.054C5.072,9.506,5.036,9.467,5.008,9.413
		c-0.034-0.078-0.039-0.168-0.017-0.27C5.036,8.987,5.12,8.879,5.242,8.819L5.31,8.783L5.267,8.756
		C5.223,8.72,5.159,8.699,5.075,8.693c-0.039,0-0.07,0.006-0.092,0.018C4.888,8.753,4.815,8.849,4.765,8.999
		c-0.044,0.15-0.128,0.573-0.251,1.269c-0.072,0.384-0.108,0.579-0.108,0.585v0.018h0.427H5.25l0.034,0.027
		c0.022,0.036,0.022,0.099,0,0.189c-0.012,0.078-0.034,0.126-0.067,0.144c-0.006,0.006-0.156,0.009-0.453,0.009
		c-0.284,0-0.427,0.003-0.427,0.009l-0.477,2.638c-0.196,1.062-0.407,1.781-0.636,2.159c-0.195,0.3-0.402,0.478-0.62,0.531
		c-0.039,0.012-0.095,0.019-0.167,0.019c-0.111-0.007-0.22-0.037-0.327-0.091c-0.061-0.03-0.114-0.069-0.159-0.116
		c-0.14-0.156-0.187-0.34-0.143-0.55c0.034-0.216,0.151-0.351,0.352-0.405c0.14-0.041,0.257-0.015,0.352,0.082
		c0.039,0.053,0.062,0.122,0.067,0.207c0.011,0.209-0.076,0.362-0.26,0.459l-0.067,0.035c0,0.012,0.039,0.036,0.117,0.072
		c0.089,0.023,0.162,0.023,0.218,0c0.078-0.042,0.145-0.133,0.201-0.27c0.028-0.072,0.092-0.352,0.192-0.838
		c0.117-0.57,0.293-1.506,0.528-2.808l0.209-1.134H3.359c-0.257-0.006-0.391-0.024-0.402-0.054
		c-0.011-0.018-0.008-0.072,0.009-0.162c0.011-0.06,0.027-0.102,0.05-0.126l0.025-0.027h0.369h0.377l0.017-0.135
		c0.117-0.618,0.187-0.972,0.209-1.062C4.067,9.398,4.143,9.17,4.238,8.99c0.078-0.15,0.189-0.282,0.334-0.396
		C4.706,8.492,4.835,8.432,4.958,8.414z"/>
	<path d="M8.624,8.036C8.658,8.012,8.702,8,8.758,8c0.051,0,0.084,0.009,0.101,0.027c0.034,0.042,0.034,0.081,0,0.117L8.733,8.27
		L8.725,8.279C8.077,8.891,7.55,9.692,7.142,10.682c-0.418,1.002-0.689,2.07-0.812,3.205c-0.018,0.149-0.031,0.297-0.043,0.44
		c-0.022,0.306-0.019,0.614,0.009,0.927c0.067,0.594,0.221,1.098,0.46,1.512c0.05,0.084,0.075,0.133,0.075,0.145
		c0,0.035-0.014,0.062-0.042,0.081L6.698,17H6.69c-0.062,0-0.109-0.023-0.143-0.072c-0.011-0.012-0.03-0.035-0.058-0.072
		c-0.324-0.432-0.539-0.972-0.645-1.619c-0.134-0.883-0.056-1.887,0.234-3.015c0.468-1.764,1.264-3.117,2.386-4.059
		C8.504,8.126,8.557,8.084,8.624,8.036z"/>
	<path d="M9.813,10.79c0.117-0.03,0.247-0.027,0.386,0.009c0.1,0.03,0.195,0.075,0.285,0.135c0.111,0.09,0.198,0.195,0.259,0.315
		l0.033,0.054l0.059-0.081c0.084-0.126,0.173-0.222,0.268-0.288c0.078-0.054,0.156-0.096,0.234-0.126
		c0.207-0.072,0.413-0.051,0.62,0.063c0.072,0.048,0.128,0.09,0.167,0.126c0.044,0.054,0.081,0.108,0.109,0.162
		c0.078,0.18,0.078,0.366,0,0.558c-0.083,0.18-0.215,0.273-0.393,0.279c-0.073,0-0.14-0.018-0.202-0.054
		c-0.044-0.024-0.081-0.063-0.108-0.117c-0.033-0.078-0.039-0.168-0.017-0.27c0.044-0.156,0.131-0.264,0.26-0.324l0.076-0.045
		l-0.034-0.027c-0.106-0.096-0.231-0.126-0.377-0.09c-0.017,0.006-0.031,0.012-0.042,0.018c-0.179,0.072-0.323,0.27-0.435,0.594
		c-0.057,0.15-0.213,0.807-0.468,1.971c-0.018,0.09-0.029,0.146-0.034,0.171c-0.028,0.174-0.034,0.303-0.016,0.387
		c0.044,0.233,0.169,0.351,0.376,0.351c0.073,0,0.148-0.018,0.226-0.054c0.257-0.108,0.463-0.356,0.62-0.747
		c0.039-0.084,0.07-0.174,0.092-0.27c0.022-0.072,0.051-0.111,0.084-0.117c0.016,0,0.05,0,0.1,0c0.084,0,0.131,0.006,0.143,0.018
		c0.033,0.024,0.036,0.084,0.008,0.18c-0.094,0.33-0.245,0.607-0.452,0.828c-0.201,0.223-0.415,0.363-0.644,0.424
		c-0.146,0.035-0.288,0.035-0.427,0c-0.251-0.061-0.442-0.211-0.57-0.45l-0.025-0.054l-0.05,0.072
		c-0.151,0.215-0.329,0.359-0.536,0.432c-0.044,0.012-0.112,0.018-0.201,0.018c-0.1,0-0.173-0.006-0.218-0.018
		c-0.111-0.03-0.212-0.081-0.301-0.153c-0.101-0.09-0.165-0.2-0.192-0.333c-0.028-0.084-0.028-0.186,0-0.307
		c0.022-0.102,0.064-0.186,0.125-0.252c0.145-0.149,0.301-0.191,0.469-0.125c0.034,0.018,0.064,0.039,0.092,0.062
		c0.051,0.055,0.078,0.123,0.084,0.207c0,0.084-0.018,0.165-0.051,0.243c-0.039,0.097-0.105,0.168-0.201,0.216
		c-0.044,0.024-0.07,0.036-0.075,0.036c-0.011,0.006-0.011,0.015,0,0.026c0.039,0.043,0.086,0.072,0.143,0.091
		c0.028,0.012,0.078,0.018,0.151,0.018c0.1,0,0.181-0.026,0.243-0.081c0.14-0.107,0.254-0.291,0.343-0.549l0.485-2.088
		c0.045-0.288,0.025-0.495-0.058-0.621c-0.083-0.126-0.21-0.174-0.376-0.144c-0.234,0.048-0.449,0.225-0.644,0.531
		c-0.107,0.18-0.182,0.369-0.227,0.567c-0.018,0.036-0.028,0.057-0.034,0.063c-0.012,0.012-0.059,0.018-0.143,0.018H8.683
		l-0.025-0.027c-0.017-0.018-0.024-0.042-0.024-0.072c0.022-0.156,0.1-0.357,0.234-0.603c0.016-0.024,0.031-0.045,0.042-0.063
		c0.078-0.132,0.176-0.255,0.293-0.369C9.398,10.934,9.602,10.826,9.813,10.79z"/>
	<path d="M14.1,8.009L14.191,8H14.2c0.062,0,0.108,0.024,0.143,0.072c0.011,0.012,0.03,0.036,0.058,0.072
		c0.324,0.432,0.539,0.972,0.646,1.62c0.134,0.882,0.055,1.887-0.234,3.015c-0.469,1.764-1.265,3.118-2.387,4.059
		c-0.039,0.036-0.092,0.078-0.159,0.126C12.233,16.988,12.188,17,12.132,17c-0.05,0-0.083-0.009-0.101-0.027
		c-0.034-0.041-0.034-0.08,0-0.117l0.126-0.125l0.008-0.01c0.646-0.611,1.174-1.416,1.582-2.412c0.413-0.99,0.684-2.048,0.812-3.177
		c0.017-0.156,0.03-0.309,0.041-0.459c0.022-0.306,0.02-0.615-0.009-0.927c-0.066-0.594-0.22-1.098-0.46-1.512
		c-0.05-0.084-0.075-0.132-0.075-0.144C14.058,8.054,14.072,8.027,14.1,8.009z"/>
	<path d="M16.343,13.221l0.042-0.027h2.436c1.624,0,2.447,0.006,2.471,0.018c0.083,0.042,0.111,0.114,0.083,0.216
		c-0.011,0.048-0.039,0.085-0.083,0.108c-0.023,0.012-0.847,0.018-2.471,0.018h-2.436l-0.042-0.027
		c-0.089-0.047-0.114-0.119-0.075-0.215C16.279,13.268,16.304,13.238,16.343,13.221z M16.762,11.465
		c0.016-0.012,0.837-0.018,2.462-0.018h2.435l0.042,0.027c0.09,0.048,0.114,0.12,0.075,0.216c-0.011,0.042-0.036,0.072-0.075,0.09
		l-0.042,0.027h-2.435c-1.619,0-2.44-0.006-2.462-0.018c-0.096-0.036-0.126-0.108-0.092-0.216
		C16.687,11.525,16.717,11.489,16.762,11.465z"/>
</g>
</svg>
