<?xml version="1.0" encoding="utf-8"?>
<!-- Generator: Adobe Illustrator 15.1.0, SVG Export Plug-In . SVG Version: 6.00 Build 0)  -->
<!DOCTYPE svg PUBLIC "-//W3C//DTD SVG 1.1//EN" "http://www.w3.org/Graphics/SVG/1.1/DTD/svg11.dtd">
<svg version="1.1" id="Layer_1" xmlns="http://www.w3.org/2000/svg" xmlns:xlink="http://www.w3.org/1999/xlink" x="0px" y="0px"
	 width="24px" height="24px" viewBox="0 0 24 24" enable-background="new 0 0 24 24" xml:space="preserve">
<rect x="0" width="24" height="24"/>
<rect x="1" y="1" fill="#FFFFFF" width="22" height="22"/>
<line fill="none" stroke="#000000" stroke-miterlimit="10" x1="3.167" y1="11.293" x2="3.167" y2="14.836"/>
<line fill="none" stroke="#000000" stroke-miterlimit="10" x1="17.166" y1="13.064" x2="17.166" y2="14.836"/>
<line fill="none" stroke="#000000" stroke-miterlimit="10" x1="11.566" y1="9.669" x2="11.566" y2="14.836"/>
<line fill="none" stroke="#000000" stroke-miterlimit="10" x1="5.966" y1="7.75" x2="5.966" y2="14.836"/>
<line fill="none" stroke="#000000" stroke-miterlimit="10" x1="8.766" y1="6.126" x2="8.766" y2="14.836"/>
<line fill="none" stroke="#000000" stroke-miterlimit="10" x1="14.366" y1="5.125" x2="14.366" y2="14.836"/>
<path fill="none" stroke="#FF0000" stroke-miterlimit="10" d="M1.438,14.836c0,0,0.628-2.209,1.375-3.836s1.276-2.349,2.312-3.25
	C7,6.25,8.964,6.091,9.875,6.126s2.648,0.481,3.688,1.624s2.219,2.4,2.752,3.026s1.838,2.735,2.311,3.174s1.649,1.555,2,1.737
	s1.562,0.812,1.562,0.812L23,16.688"/>
</svg>
